<?xml version="1.0" standalone="no"?>
<!DOCTYPE svg PUBLIC "-//W3C//DTD SVG 20010904//EN"
 "http://www.w3.org/TR/2001/REC-SVG-20010904/DTD/svg10.dtd">
<svg version="1.0" xmlns="http://www.w3.org/2000/svg"
 width="297.000000pt" height="47.000000pt" viewBox="0 0 297.000000 47.000000"
 preserveAspectRatio="xMidYMid meet">

<g transform="translate(0.000000,47.000000) scale(0.100000,-0.100000)"
fill="#000000" stroke="none">
<path d="M410 235 c0 -77 4 -125 10 -125 6 0 10 27 10 60 0 51 4 65 25 85 20
20 34 25 78 25 73 0 87 -16 87 -103 0 -38 4 -67 10 -67 6 0 10 30 10 70 0 63
-3 74 -26 97 -23 23 -31 25 -84 21 -39 -3 -66 -11 -80 -23 -20 -18 -20 -18
-20 33 0 29 -4 52 -10 52 -6 0 -10 -48 -10 -125z"/>
<path d="M1970 235 c0 -77 4 -125 10 -125 6 0 10 23 10 51 0 87 28 118 106
119 69 0 87 -20 92 -106 2 -35 9 -64 15 -64 6 0 8 26 5 72 -5 63 -9 75 -34 96
-24 21 -35 24 -85 20 -38 -3 -65 -11 -79 -23 -20 -18 -20 -18 -20 33 0 29 -4
52 -10 52 -6 0 -10 -48 -10 -125z"/>
<path d="M1715 340 c-3 -5 1 -10 9 -10 9 0 16 5 16 10 0 6 -4 10 -9 10 -6 0
-13 -4 -16 -10z"/>
<path d="M125 331 c-33 -14 -48 -38 -41 -65 7 -28 40 -41 131 -51 72 -8 95
-19 95 -45 0 -29 -31 -40 -108 -40 -54 0 -72 4 -85 18 -10 10 -17 24 -17 30 0
7 -4 12 -10 12 -18 0 -10 -31 15 -55 21 -22 33 -25 97 -25 91 0 122 14 126 58
3 29 -1 34 -30 46 -18 7 -60 17 -92 21 -81 9 -106 20 -106 45 0 26 36 40 105
40 64 0 101 -15 110 -44 7 -19 7 -20 12 -2 10 37 -30 60 -110 63 -39 2 -81 -1
-92 -6z"/>
<path d="M1280 338 c0 -2 18 -52 39 -113 25 -72 44 -111 55 -113 9 -2 16 1 16
6 0 5 20 52 45 103 l44 94 48 -102 c26 -57 53 -103 60 -103 6 0 16 15 23 33
46 125 68 198 58 195 -6 -2 -27 -49 -46 -103 l-36 -99 -48 99 c-26 55 -52 101
-58 103 -6 2 -31 -42 -57 -97 -26 -56 -50 -98 -54 -94 -3 5 -12 26 -19 48 -27
85 -52 145 -61 145 -5 0 -9 -1 -9 -2z"/>
<path d="M1820 321 c0 -12 -8 -21 -22 -24 l-23 -4 23 -8 c20 -7 22 -14 22 -79
0 -43 5 -77 12 -84 15 -15 88 -16 88 -1 0 7 -9 9 -22 6 -44 -12 -58 8 -58 83
l0 70 34 0 c19 0 38 5 41 10 4 6 -10 10 -34 10 -29 0 -41 4 -41 14 0 8 -4 18
-10 21 -5 3 -10 -3 -10 -14z"/>
<path d="M2290 225 c0 -141 18 -156 22 -19 l3 97 62 -97 c34 -53 67 -96 73
-96 6 0 39 43 73 95 l62 96 3 -96 c4 -136 22 -120 22 20 0 63 -4 115 -9 115
-12 0 -25 -17 -92 -121 l-58 -92 -68 107 c-37 58 -74 106 -80 106 -10 0 -13
-30 -13 -115z"/>
<path d="M755 291 c-35 -15 -48 -40 -48 -88 0 -38 5 -50 28 -71 25 -21 36 -24
97 -20 87 5 111 25 111 93 0 67 -24 88 -105 92 -35 1 -72 -1 -83 -6z m155 -38
c16 -20 20 -36 16 -58 -11 -50 -37 -68 -102 -68 -50 0 -61 4 -81 27 -29 34
-29 65 -2 100 18 23 27 26 84 26 57 0 66 -3 85 -27z"/>
<path d="M1010 175 c0 -77 4 -125 10 -125 6 0 10 20 10 45 l0 46 30 -16 c46
-24 123 -20 157 9 24 21 28 31 27 72 -1 38 -6 52 -28 71 -33 28 -110 32 -156
8 -27 -14 -30 -14 -30 0 0 8 -4 15 -10 15 -6 0 -10 -48 -10 -125z m198 78 c40
-44 23 -106 -33 -122 -74 -20 -145 16 -145 74 0 76 122 109 178 48z"/>
<path d="M1720 205 c0 -57 4 -95 10 -95 6 0 10 38 10 95 0 57 -4 95 -10 95 -6
0 -10 -38 -10 -95z"/>
<path d="M2735 290 c-34 -13 -48 -39 -48 -87 0 -38 5 -50 27 -70 54 -46 197
-21 196 35 0 14 -4 13 -18 -6 -40 -51 -156 -49 -180 3 -7 14 -12 28 -12 31 0
3 30 3 68 0 87 -8 136 8 140 46 5 38 -29 58 -98 57 -30 0 -64 -4 -75 -9z m139
-16 c22 -8 20 -41 -3 -54 -22 -11 -126 -12 -154 -1 -17 6 -17 8 3 34 19 24 28
27 80 27 32 0 65 -3 74 -6z"/>
</g>
</svg>
